<svg width="733" height="648" viewBox="0 0 733 648" fill="none" xmlns="http://www.w3.org/2000/svg">
<path fill-rule="evenodd" clip-rule="evenodd" d="M549.485 6.35215C610.228 41.4222 577.427 211.956 476.22 387.25C375.014 562.545 243.728 676.219 182.985 641.149C160.292 628.047 150.655 596.039 152.763 551.939C160.633 559.796 171.498 564.655 183.498 564.655C191.679 564.655 199.332 562.397 205.869 558.47C209.701 566.007 214.867 571.798 221.418 575.581C269.487 603.333 373.932 512.419 454.704 372.518C535.475 232.618 561.987 96.7083 513.918 68.956C465.85 41.2037 361.404 132.118 280.633 272.018C246.681 330.825 222.316 388.926 209.048 438.586C206.143 438.139 189.789 435.581 177.534 432.86C195.14 379.341 221.712 320.073 256.25 260.25C357.456 84.9562 488.742 -28.7179 549.485 6.35215ZM516.677 237.684C519.938 228 522.835 218.546 525.361 209.37C477.302 201.348 423.416 196.852 366.5 196.852C353.871 196.852 341.392 197.073 329.092 197.506C322.414 206.618 315.784 216.099 309.241 225.916C328.378 224.563 348.197 223.852 368.5 223.852C422.574 223.852 473.222 228.894 516.677 237.684ZM0 323.852C0 262.284 126.433 210.948 294.238 199.32C287.733 208.988 281.294 218.922 274.944 229.103C159.282 242.509 76 280.089 76 324.352C76 356.44 119.769 385.016 187.912 403.416C184.186 413.343 180.742 423.115 177.585 432.703C71.1697 410.478 0 370.045 0 323.852ZM209.052 438.569C211.487 429.459 214.294 420.065 217.466 410.435C261.552 419.586 313.236 424.852 368.5 424.852C387.154 424.852 405.401 424.252 423.085 423.105C416.757 432.463 410.354 441.503 403.91 450.199C391.61 450.631 379.129 450.852 366.5 450.852C310.141 450.852 256.754 446.444 209.052 438.569ZM456.376 420.238C450.344 429.865 444.233 439.269 438.063 448.432C606.216 436.899 733 385.506 733 323.852C733 298.024 710.751 273.997 672.532 253.947C672.84 256.037 673 258.176 673 260.352C673 276.562 664.134 290.701 650.986 298.184C657.517 306.528 661 315.3 661 324.352C661 369.336 574.981 407.418 456.376 420.238Z" fill="black"/>
<path fill-rule="evenodd" clip-rule="evenodd" d="M182.985 6.35215C122.242 41.4222 155.044 211.956 256.25 387.25C357.456 562.545 488.742 676.219 549.485 641.149C610.228 606.079 577.427 435.545 476.22 260.25C441.934 200.865 404.195 148.551 366.917 106.697C362.318 125.419 347.5 130.852 347.5 130.852C347.488 130.859 347.477 130.865 347.465 130.871C382.596 166.822 419.155 215.41 451.838 272.018C532.609 411.919 559.121 547.829 511.052 575.581C462.984 603.333 358.538 512.419 277.767 372.518C196.995 232.618 170.484 96.7083 218.552 68.956C227.129 64.0044 237.5 62.8304 249.211 65.0384C250.954 47.3346 263.31 32.7474 279.831 27.7258C240.835 1.55427 206.586 -7.27355 182.985 6.35215Z" fill="black"/>
<path fill-rule="evenodd" clip-rule="evenodd" d="M516.677 237.684C519.938 228 522.835 218.546 525.361 209.37C477.302 201.348 423.416 196.852 366.5 196.852C353.871 196.852 341.392 197.073 329.092 197.506C322.414 206.618 315.784 216.099 309.241 225.916C328.378 224.563 348.197 223.852 368.5 223.852C422.574 223.852 473.222 228.894 516.677 237.684ZM0 323.852C0 262.284 126.433 210.948 294.238 199.32C287.733 208.988 281.294 218.922 274.944 229.103C159.282 242.509 76 280.089 76 324.352C76 356.44 119.768 385.016 187.912 403.416C184.186 413.343 180.742 423.115 177.585 432.703C71.1697 410.478 0 370.045 0 323.852ZM209.052 438.569C211.487 429.459 214.294 420.065 217.466 410.435C261.552 419.586 313.236 424.852 368.5 424.852C387.154 424.852 405.401 424.252 423.085 423.105C416.757 432.463 410.354 441.503 403.91 450.199C391.61 450.631 379.129 450.852 366.5 450.852C310.141 450.852 256.754 446.444 209.052 438.569ZM456.376 420.238C450.344 429.865 444.233 439.269 438.063 448.432C606.216 436.899 733 385.506 733 323.852C733 298.024 710.751 273.997 672.532 253.947C672.84 256.037 673 258.176 673 260.352C673 276.562 664.134 290.701 650.986 298.184C657.517 306.528 661 315.3 661 324.352C661 369.337 574.981 407.418 456.376 420.238Z" fill="black"/>
<circle cx="306" cy="78.8522" r="44" fill="#EB5757"/>
<circle cx="608" cy="253.852" r="44" fill="#27AE60"/>
<circle cx="185" cy="499.852" r="44" fill="#2F80ED"/>
<circle cx="366" cy="323.852" r="75" fill="#F2C94C"/>
</svg>
