<svg width="84" height="18" viewBox="0 0 84 18" fill="none" xmlns="http://www.w3.org/2000/svg">
<path d="M0.777832 0.111115H4.47014V6.95419H11.8548V0.111115H15.5471V17.3419H11.8548V10.0065H4.47014V17.3419H0.777832V0.111115Z" fill="#7033FF"/>
<path d="M22.409 17.6373C21.7033 17.6373 21.0798 17.5388 20.5382 17.3419C19.9967 17.1286 19.5372 16.8414 19.1598 16.4803C18.7823 16.1029 18.4951 15.668 18.2982 15.1757C18.1013 14.667 18.0028 14.1173 18.0028 13.5265C18.0028 10.9009 19.5618 9.58804 22.6798 9.58804H26.569V8.97265C26.569 8.11932 26.3721 7.52035 25.9782 7.17573C25.6008 6.83112 24.9936 6.65881 24.1567 6.65881C23.4182 6.65881 22.8849 6.79009 22.5567 7.05265C22.2285 7.29881 22.0398 7.6106 21.9905 7.98804H18.7413C18.7741 7.43009 18.9136 6.90496 19.1598 6.41265C19.4223 5.92035 19.7833 5.50188 20.2428 5.15727C20.7187 4.79624 21.2931 4.51727 21.9659 4.32034C22.6387 4.10701 23.41 4.00034 24.2798 4.00034C25.1167 4.00034 25.8716 4.0906 26.5444 4.27111C27.2336 4.45163 27.8162 4.74701 28.2921 5.15727C28.7844 5.55112 29.1618 6.06804 29.4244 6.70804C29.6869 7.34804 29.8182 8.11932 29.8182 9.02188V14.0188C29.8182 14.708 29.8264 15.3152 29.8428 15.8403C29.8757 16.3491 29.9249 16.8496 29.9905 17.3419H26.9628C26.8972 16.9809 26.8562 16.7101 26.8398 16.5296C26.8398 16.3327 26.8398 16.0455 26.8398 15.668C26.4787 16.1932 25.929 16.6527 25.1905 17.0465C24.4685 17.4403 23.5413 17.6373 22.409 17.6373ZM23.4182 15.1265C23.8121 15.1265 24.1977 15.0773 24.5751 14.9788C24.9526 14.8639 25.289 14.6998 25.5844 14.4865C25.8798 14.2568 26.1177 13.9696 26.2982 13.625C26.4787 13.2803 26.569 12.8783 26.569 12.4188V11.8034H23.2951C22.6716 11.8034 22.1792 11.9511 21.8182 12.2465C21.4736 12.5255 21.3013 12.9111 21.3013 13.4034C21.3013 13.9286 21.4818 14.347 21.8428 14.6588C22.2039 14.9706 22.729 15.1265 23.4182 15.1265Z" fill="#7033FF"/>
<path d="M35.1205 7.00342H30.9605V4.29573H42.5298V7.00342H38.3698V17.3419H35.1205V7.00342Z" fill="#7033FF"/>
<path d="M47.434 17.6373C46.7283 17.6373 46.1048 17.5388 45.5632 17.3419C45.0217 17.1286 44.5622 16.8414 44.1848 16.4803C43.8073 16.1029 43.5201 15.668 43.3232 15.1757C43.1263 14.667 43.0278 14.1173 43.0278 13.5265C43.0278 10.9009 44.5868 9.58804 47.7048 9.58804H51.594V8.97265C51.594 8.11932 51.3971 7.52035 51.0032 7.17573C50.6258 6.83112 50.0186 6.65881 49.1817 6.65881C48.4432 6.65881 47.9099 6.79009 47.5817 7.05265C47.2535 7.29881 47.0648 7.6106 47.0155 7.98804H43.7663C43.7991 7.43009 43.9386 6.90496 44.1848 6.41265C44.4473 5.92035 44.8083 5.50188 45.2678 5.15727C45.7437 4.79624 46.3181 4.51727 46.9909 4.32034C47.6637 4.10701 48.435 4.00034 49.3048 4.00034C50.1417 4.00034 50.8965 4.0906 51.5694 4.27111C52.2586 4.45163 52.8412 4.74701 53.3171 5.15727C53.8094 5.55112 54.1868 6.06804 54.4494 6.70804C54.7119 7.34804 54.8432 8.11932 54.8432 9.02188V14.0188C54.8432 14.708 54.8514 15.3152 54.8678 15.8403C54.9007 16.3491 54.9499 16.8496 55.0155 17.3419H51.9878C51.9222 16.9809 51.8812 16.7101 51.8648 16.5296C51.8648 16.3327 51.8648 16.0455 51.8648 15.668C51.5037 16.1932 50.954 16.6527 50.2155 17.0465C49.4935 17.4403 48.5663 17.6373 47.434 17.6373ZM48.4432 15.1265C48.8371 15.1265 49.2227 15.0773 49.6001 14.9788C49.9776 14.8639 50.314 14.6998 50.6094 14.4865C50.9048 14.2568 51.1427 13.9696 51.3232 13.625C51.5037 13.2803 51.594 12.8783 51.594 12.4188V11.8034H48.3201C47.6966 11.8034 47.2042 11.9511 46.8432 12.2465C46.4986 12.5255 46.3263 12.9111 46.3263 13.4034C46.3263 13.9286 46.5068 14.347 46.8678 14.6588C47.2289 14.9706 47.754 15.1265 48.4432 15.1265Z" fill="#7033FF"/>
<path d="M57.3096 17.6373C57.1783 17.6373 57.0142 17.6291 56.8173 17.6127C56.6203 17.6127 56.4562 17.5962 56.325 17.5634V14.6342C56.407 14.6506 56.5301 14.6588 56.6942 14.6588C57.006 14.6588 57.2767 14.5686 57.5065 14.388C57.7362 14.1911 57.9249 13.8629 58.0726 13.4034C58.2367 12.9439 58.3516 12.3368 58.4173 11.5819C58.4993 10.8106 58.5403 9.85881 58.5403 8.7265V4.29573H68.8788V17.3419H65.6296V7.00342H61.5434V9.21881C61.5434 10.9091 61.4532 12.3039 61.2726 13.4034C61.1085 14.4865 60.846 15.3398 60.485 15.9634C60.1403 16.587 59.6973 17.0219 59.1557 17.268C58.6306 17.5142 58.0152 17.6373 57.3096 17.6373Z" fill="#7033FF"/>
<path d="M71.3336 4.29573H74.5828V12.665L80.3921 4.29573H83.3951V17.3419H80.1459V8.97265L74.3367 17.3419H71.3336V4.29573Z" fill="#7033FF"/>
</svg>
