<svg width="16" height="16" viewBox="0 0 16 16" fill="none" xmlns="http://www.w3.org/2000/svg">
<path d="M8 0C6.73752 -1.5055e-08 5.49296 0.298792 4.36808 0.871948C3.2432 1.4451 2.26993 2.27635 1.52786 3.29772C0.785795 4.31909 0.295989 5.50158 0.0984932 6.74852C-0.0990026 7.99546 0.00141915 9.27144 0.391548 10.4721C0.781677 11.6728 1.45044 12.7641 2.34315 13.6569C3.23586 14.5496 4.32717 15.2183 5.52786 15.6085C6.72856 15.9986 8.00454 16.099 9.25148 15.9015C10.4984 15.704 11.6809 15.2142 12.7023 14.4721L11.7618 13.1777C10.9447 13.7714 9.99873 14.1632 9.00118 14.3212C8.00363 14.4792 6.98285 14.3989 6.02229 14.0868C5.06174 13.7747 4.18869 13.2397 3.47452 12.5255C2.76035 11.8113 2.22534 10.9383 1.91324 9.97771C1.60114 9.01715 1.5208 7.99637 1.67879 6.99882C1.83679 6.00127 2.22864 5.05527 2.82229 4.23817C3.41595 3.42108 4.19456 2.75608 5.09446 2.29756C5.99437 1.83903 6.99001 1.6 8 1.6V0Z" fill="white"/>
</svg>
